<svg xmlns="http://www.w3.org/2000/svg" width="150" height="50" viewBox="0,0,150,50"><rect width="100%" height="100%" fill="#f0f0f0"/><path d="M9 36 C72 39,60 25,132 17" stroke="#6ee2a8" fill="none"/><path d="M11 32 C64 21,60 37,134 11" stroke="#37e663" fill="none"/><path fill="#e44896" d="M81.97 32.96L81.91 32.90L81.89 32.88Q85.10 32.63 88.30 32.74L88.21 32.65L88.15 32.60Q88.30 30.23 88.30 27.83L88.29 27.82L88.28 27.81Q88.16 25.21 88.35 22.66L88.44 22.75L88.42 22.74Q87.17 24.41 81.95 32.94ZM91.90 40.34L91.95 40.39L91.84 40.28Q90.24 40.05 88.45 39.97L88.35 39.87L88.46 39.98Q88.21 37.56 88.10 35.09L88.00 35.00L88.07 35.06Q82.67 34.80 77.95 36.21L78.05 36.31L78.07 36.33Q78.24 35.89 78.43 34.90L78.30 34.77L78.25 34.73Q80.05 31.57 83.63 25.29L83.70 25.37L83.71 25.38Q86.70 20.60 90.13 16.72L90.05 16.64L90.08 16.67Q90.84 16.36 92.51 16.09L92.61 16.19L92.54 16.12Q90.78 22.69 90.78 29.74L90.61 29.57L90.61 29.57Q90.78 31.22 90.86 32.71L90.85 32.71L92.09 32.76L92.06 32.73Q92.63 32.73 93.24 32.84L93.17 32.78L93.18 32.78Q93.48 33.97 93.75 35.91L93.75 35.90L93.65 35.81Q92.39 35.50 90.91 35.31L91.01 35.42L90.99 35.39Q91.14 37.33 91.82 40.26ZM93.45 32.41L93.50 32.46L93.58 32.54Q93.36 32.43 93.17 32.43L93.20 32.47L92.71 32.36L92.72 32.37Q92.65 30.92 92.65 29.52L92.65 29.52L92.60 29.46Q92.73 23.20 94.78 17.18L94.69 17.09L94.63 17.03Q93.88 17.31 92.43 17.69L92.56 17.82L92.60 17.86Q92.73 17.00 93.19 15.59L93.19 15.59L93.27 15.67Q91.96 16.03 89.90 16.26L89.85 16.21L89.77 16.12Q85.86 20.48 80.65 29.85L80.81 30.01L82.82 26.28L82.86 26.32Q82.41 27.31 82.14 27.88L82.21 27.95L77.58 36.80L77.70 36.91Q78.34 36.76 79.49 36.38L79.36 36.25L79.30 36.58L79.34 36.61Q79.12 37.19 78.82 38.45L78.79 38.43L78.79 38.42Q83.04 37.23 87.88 37.42L87.75 37.29L87.81 37.36Q87.79 38.24 87.98 40.22L87.99 40.24L87.97 40.21Q89.11 40.29 90.18 40.41L90.12 40.35L90.26 40.49Q90.41 41.17 90.67 42.54L90.67 42.54L90.56 42.42Q92.55 42.74 95.56 43.66L95.42 43.52L95.43 43.53Q94.56 41.52 93.65 38.24L93.71 38.31L94.97 38.58L95.15 38.76Q95.83 38.98 96.52 39.32L96.41 39.22L96.37 39.17Q95.54 36.63 95.39 34.96L95.52 35.09L95.43 35.00Q94.97 34.96 93.83 34.73L93.76 34.66L93.68 34.58Q93.59 33.43 93.59 32.55ZM85.46 32.26L85.60 32.40L85.64 32.44Q86.29 31.04 87.85 28.49L87.77 28.40L87.96 28.60Q87.89 29.47 87.85 30.42L87.82 30.39L87.81 30.39Q87.87 31.44 87.91 32.39L87.84 32.32L87.95 32.43Q87.24 32.26 86.67 32.26L86.82 32.40L86.78 32.37Q86.19 32.38 85.58 32.38Z"/><path fill="#afe07f" d="M26.02 27.68L25.96 27.62L25.93 27.59Q23.81 27.71 22.53 29.22L22.56 29.25L22.51 29.20Q21.16 30.63 21.04 32.91L21.08 32.95L21.09 32.95Q21.05 35.69 21.88 36.64L21.91 36.67L21.73 36.49Q22.99 37.90 25.31 37.75L25.32 37.76L25.29 37.73Q29.92 37.41 30.30 34.40L30.21 34.31L30.23 34.33Q30.28 33.46 30.28 32.66L30.34 32.72L30.26 32.65Q30.30 30.71 29.16 29.19L29.10 29.13L29.11 29.14Q27.89 27.57 25.94 27.61ZM30.85 37.76L30.82 37.74L30.75 37.66Q29.32 39.85 24.94 40.08L24.94 40.08L24.99 40.13Q20.86 40.34 19.22 39.24L19.17 39.18L19.20 39.21Q18.28 38.33 18.13 36.62L17.95 36.44L18.13 36.62Q18.05 35.48 18.24 33.61L18.28 33.64L18.27 33.64Q18.69 29.26 19.91 27.43L19.92 27.44L19.92 27.44Q21.52 24.94 25.37 24.98L25.33 24.94L25.30 24.91Q27.98 25.11 30.27 27.44L30.24 27.41L30.25 27.42Q30.22 21.46 31.82 14.95L31.96 15.09L31.95 15.07Q33.84 14.64 35.71 13.80L35.67 13.77L35.57 13.67Q33.07 20.38 32.80 27.38L32.72 27.30L32.72 27.30Q32.38 34.42 34.51 41.01L34.57 41.07L34.57 41.06Q33.05 40.58 31.34 40.20L31.24 40.10L31.27 40.13Q30.91 38.78 30.76 37.68ZM33.80 43.15L33.84 43.19L33.87 43.22Q35.96 43.79 38.51 45.31L38.43 45.23L38.43 45.24Q34.80 38.25 34.65 29.95L34.69 29.99L34.64 29.95Q34.41 21.64 37.49 14.26L37.57 14.33L37.58 14.34Q36.97 14.87 35.52 15.52L35.47 15.47L35.37 15.37Q35.70 14.22 36.31 13.00L36.45 13.14L36.46 13.15Q34.06 14.21 31.62 14.78L31.64 14.80L31.52 14.68Q30.07 20.47 29.81 26.56L29.79 26.54L29.86 26.61Q27.94 24.77 25.43 24.65L25.31 24.53L25.41 24.64Q21.92 24.46 20.02 26.55L20.01 26.54L20.00 26.53Q18.35 28.95 17.93 33.64L17.84 33.55L17.90 33.61Q17.65 36.37 17.65 36.79L17.60 36.73L17.70 36.83Q17.70 38.51 18.84 39.58L18.80 39.53L18.85 39.59Q19.11 39.84 19.30 39.92L19.40 40.02L19.67 40.48L19.74 40.56Q20.79 41.98 23.76 42.25L23.74 42.23L23.77 42.26Q25.99 42.42 27.36 42.50L27.23 42.37L27.31 42.45Q31.46 42.61 33.18 41.27L33.18 41.28L33.11 41.21Q33.37 42.04 33.83 43.18ZM27.55 29.90L27.59 29.94L27.64 29.99Q28.61 29.93 29.45 30.43L29.49 30.47L29.53 30.50Q29.89 31.67 29.97 32.69L29.93 32.66L30.06 32.78Q30.27 36.92 25.25 37.27L25.37 37.39L25.36 37.38Q24.50 37.43 23.40 37.16L23.28 37.05L23.37 37.14Q23.11 36.50 23.04 35.97L22.90 35.83L23.06 35.99Q22.88 35.20 22.92 34.59L22.94 34.62L22.94 34.62Q23.22 31.16 25.84 30.17L25.94 30.27L25.92 30.24Q26.87 29.87 27.56 29.91Z"/><path fill="#eded72" d="M48.28 14.40L48.22 14.35L48.20 14.32Q52.06 16.92 56.81 17.15L56.77 17.11L56.71 17.04Q61.32 17.20 65.58 15.45L65.66 15.53L65.60 15.47Q65.29 15.95 64.53 18.73L64.71 18.92L64.60 18.81Q61.91 19.89 58.94 20.04L58.85 19.95L58.87 19.97Q55.85 20.07 52.95 19.34L53.06 19.45L53.00 19.39Q53.81 23.13 54.00 26.79L53.91 26.70L54.02 26.80Q55.96 26.96 57.56 26.92L57.64 27.00L57.51 26.87Q58.78 26.92 61.18 26.81L61.22 26.85L61.07 26.70Q61.20 27.51 61.20 28.20L61.14 28.14L61.09 29.43L61.18 29.51Q58.67 29.40 53.87 29.48L53.99 29.59L54.01 29.62Q54.00 33.72 53.43 37.71L53.43 37.71L53.41 37.69Q55.91 36.91 58.65 37.03L58.78 37.16L58.81 37.20Q61.48 37.23 64.06 38.07L64.08 38.08L64.06 38.06Q64.17 38.90 64.44 39.66L64.29 39.51L64.83 41.12L64.91 41.20Q61.70 39.89 58.27 39.89L58.26 39.87L58.19 39.81Q53.24 39.73 48.97 41.97L49.08 42.08L49.06 42.06Q51.44 35.30 51.17 28.19L51.06 28.07L51.19 28.20Q50.75 20.87 48.08 14.21ZM48.56 42.78L48.58 42.80L48.65 42.87Q49.77 42.01 50.53 41.67L50.49 41.62L50.51 41.64Q50.29 42.38 49.72 43.90L49.84 44.02L49.76 43.94Q54.38 42.05 59.44 42.32L59.37 42.24L59.46 42.34Q64.67 42.67 68.66 45.37L68.58 45.29L68.59 45.30Q67.46 42.80 66.78 40.86L66.80 40.88L66.80 40.88Q65.78 40.24 64.79 39.89L64.76 39.87L64.73 39.83Q64.29 38.40 64.13 37.60L64.27 37.74L64.13 37.61Q61.09 36.66 57.93 36.66L58.03 36.75L57.94 36.67Q56.88 36.75 55.74 36.86L55.74 36.87L55.64 36.76Q55.82 35.57 55.86 34.36L55.93 34.42L55.86 31.77L55.97 31.88Q57.75 31.76 59.54 31.79L59.46 31.71L59.46 31.72Q61.37 31.84 63.16 31.99L63.06 31.88L63.11 31.93Q63.05 31.00 63.05 30.05L63.06 30.06L63.08 28.18L62.31 28.28L62.20 28.17Q61.91 28.38 61.46 28.38L61.39 28.31L61.48 28.41Q61.47 27.71 61.63 26.42L61.64 26.43L61.61 26.40Q59.86 26.48 58.68 26.52L58.83 26.67L58.79 26.63Q57.86 26.65 56.03 26.57L55.99 26.53L55.89 26.43Q55.81 25.02 55.62 22.20L55.65 22.23L55.74 22.32Q56.80 22.47 57.79 22.47L57.72 22.40L57.75 22.42Q62.48 22.44 66.17 20.53L66.13 20.49L66.18 20.54Q66.64 18.07 67.52 15.86L67.64 15.98L67.57 15.92Q66.30 16.82 65.47 17.16L65.47 17.16L65.49 17.19Q65.73 16.36 66.19 14.80L66.15 14.77L66.15 14.76Q61.55 16.94 56.68 16.63L56.72 16.67L56.69 16.64Q51.41 16.35 47.56 13.50L47.49 13.42L47.51 13.44Q50.38 20.39 50.68 28.00L50.72 28.03L50.81 28.13Q51.17 36.10 48.66 42.87Z"/><path d="M10 41 C58 43,78 10,135 16" stroke="#e0748f" fill="none"/><path fill="#eb6fad" d="M108.47 14.29L108.48 14.29L108.61 14.43Q110.95 15.93 112.70 16.35L112.71 16.36L112.75 16.40Q114.07 22.89 114.07 29.48L114.06 29.48L114.17 29.59Q114.17 33.58 113.63 37.57L113.59 37.53L113.54 37.48Q115.73 36.97 118.21 37.05L118.20 37.04L118.23 37.07Q120.72 37.16 122.86 37.89L122.79 37.83L122.87 37.90Q123.23 39.48 123.69 41.04L123.54 40.89L123.55 40.90Q120.27 39.65 116.43 39.91L116.30 39.78L116.46 39.94Q112.59 40.18 109.35 42.08L109.38 42.11L109.27 42.00Q111.42 35.09 111.15 28.09L111.31 28.25L111.27 28.21Q110.87 20.99 108.43 14.25ZM108.75 42.74L108.86 42.85L108.79 42.78Q109.57 42.50 110.94 41.77L110.78 41.61L110.91 41.74Q110.61 42.35 110.08 43.84L110.06 43.83L110.16 43.92Q113.67 42.22 117.52 42.22L117.59 42.29L117.62 42.32Q123.15 42.22 127.26 45.26L127.31 45.32L127.30 45.30Q126.64 43.81 125.61 40.84L125.63 40.85L125.64 40.87Q124.41 40.05 123.54 39.67L123.56 39.70L123.54 39.68Q123.46 39.02 123.15 37.61L123.18 37.64L123.24 37.70Q120.59 36.76 117.58 36.76L117.62 36.80L117.48 36.67Q116.81 36.75 116.01 36.79L116.00 36.79L116.06 36.84Q116.34 31.95 116.27 27.83L116.07 27.64L116.18 27.74Q116.09 23.62 115.75 18.63L115.69 18.58L115.80 18.68Q114.31 18.49 113.51 18.30L113.46 18.25L113.46 18.26Q113.44 17.62 113.21 16.22L113.26 16.27L113.22 16.22Q110.10 15.39 107.85 13.44L107.95 13.54L107.82 13.41Q110.57 20.50 110.84 28.00L110.96 28.12L110.83 28.00Q111.14 35.58 108.74 42.73Z"/></svg>